<svg width="202" height="70" viewBox="0 0 202 70" fill="none" xmlns="http://www.w3.org/2000/svg">
<rect width="202" height="70" rx="35" fill="#0328EE"/>
<g clip-path="url(#clip0_24_1474)">
<path d="M48.5186 38.5951L45.066 35.136L33.6411 46.7387C33.7503 46.6974 33.8562 46.6478 33.9578 46.5902L48.5186 38.5951Z" fill="white"/>
<path d="M32.0085 23.9401C32.0144 25.3554 32.1071 44.2237 32.116 45.4134C32.0903 45.6611 32.1258 45.9113 32.2194 46.142C32.313 46.3725 32.4618 46.5765 32.6526 46.7357L44.5668 34.6372L32.6004 22.6436C32.3938 22.7855 32.2297 22.9812 32.1254 23.2096C32.0212 23.4379 31.9808 23.6905 32.0085 23.9401Z" fill="white"/>
<path d="M49.1585 30.9814L45.561 34.6345L49.1625 38.2421L54.1124 35.5234C54.7043 35.1957 55.3336 34.3604 54.1124 33.6923L49.1585 30.9814Z" fill="white"/>
<path d="M33.9577 22.6593C33.7996 22.5753 33.6274 22.5213 33.4497 22.5L45.0631 34.1343L48.5156 30.6287L33.9577 22.6593Z" fill="white"/>
</g>
<path d="M64.0911 40V28.8H68.2351C69.1311 28.8 69.8725 28.9493 70.4591 29.248C71.0458 29.5467 71.4831 29.9573 71.7711 30.48C72.0591 31.0027 72.2031 31.5893 72.2031 32.24C72.2031 32.8587 72.0645 33.4293 71.7871 33.952C71.5098 34.464 71.0778 34.88 70.4911 35.2C69.9045 35.5093 69.1525 35.664 68.2351 35.664H66.1391V40H64.0911ZM66.1391 34H68.1071C68.8218 34 69.3338 33.8453 69.6431 33.536C69.9631 33.216 70.1231 32.784 70.1231 32.24C70.1231 31.6853 69.9631 31.2533 69.6431 30.944C69.3338 30.624 68.8218 30.464 68.1071 30.464H66.1391V34ZM75.4099 40V28.8H77.4579V38.4H82.4179V40H75.4099ZM85.1024 40L89.1984 28.8H91.5024L95.5984 40H93.4224L92.5264 37.408H88.1584L87.2464 40H85.1024ZM88.7184 35.808H91.9664L90.3344 31.152L88.7184 35.808ZM100.24 40V36.016L96.4802 28.8H98.8002L101.28 33.968L103.744 28.8H106.032L102.288 36.016V40H100.24ZM118.181 40.192C117.359 40.192 116.634 40.0533 116.005 39.776C115.375 39.488 114.879 39.0827 114.517 38.56C114.154 38.0267 113.967 37.3813 113.957 36.624H116.117C116.138 37.1467 116.325 37.5893 116.677 37.952C117.039 38.304 117.535 38.48 118.165 38.48C118.709 38.48 119.141 38.352 119.461 38.096C119.781 37.8293 119.941 37.4773 119.941 37.04C119.941 36.5813 119.797 36.224 119.509 35.968C119.231 35.712 118.858 35.504 118.389 35.344C117.919 35.184 117.418 35.0133 116.885 34.832C116.021 34.5333 115.359 34.1493 114.901 33.68C114.453 33.2107 114.229 32.5867 114.229 31.808C114.218 31.1467 114.373 30.5813 114.693 30.112C115.023 29.632 115.471 29.264 116.037 29.008C116.602 28.7413 117.253 28.608 117.989 28.608C118.735 28.608 119.391 28.7413 119.957 29.008C120.533 29.2747 120.981 29.648 121.301 30.128C121.631 30.608 121.807 31.1787 121.829 31.84H119.637C119.626 31.4453 119.471 31.0987 119.173 30.8C118.885 30.4907 118.479 30.336 117.957 30.336C117.509 30.3253 117.13 30.4373 116.821 30.672C116.522 30.896 116.373 31.2267 116.373 31.664C116.373 32.0373 116.49 32.336 116.725 32.56C116.959 32.7733 117.279 32.9547 117.685 33.104C118.09 33.2533 118.554 33.4133 119.077 33.584C119.631 33.776 120.138 34 120.597 34.256C121.055 34.512 121.423 34.8533 121.701 35.28C121.978 35.696 122.117 36.2347 122.117 36.896C122.117 37.4827 121.967 38.0267 121.669 38.528C121.37 39.0293 120.927 39.4347 120.341 39.744C119.754 40.0427 119.034 40.192 118.181 40.192ZM127.971 40V30.448H124.707V28.8H133.299V30.448H130.019V40H127.971ZM141.258 40.192C140.138 40.192 139.157 39.9467 138.314 39.456C137.482 38.9653 136.826 38.288 136.346 37.424C135.877 36.5493 135.642 35.5413 135.642 34.4C135.642 33.2587 135.877 32.256 136.346 31.392C136.826 30.5173 137.482 29.8347 138.314 29.344C139.157 28.8533 140.138 28.608 141.258 28.608C142.367 28.608 143.343 28.8533 144.186 29.344C145.029 29.8347 145.685 30.5173 146.154 31.392C146.623 32.256 146.858 33.2587 146.858 34.4C146.858 35.5413 146.623 36.5493 146.154 37.424C145.685 38.288 145.029 38.9653 144.186 39.456C143.343 39.9467 142.367 40.192 141.258 40.192ZM141.258 38.352C142.325 38.352 143.173 38 143.802 37.296C144.442 36.592 144.762 35.6267 144.762 34.4C144.762 33.1733 144.442 32.208 143.802 31.504C143.173 30.8 142.325 30.448 141.258 30.448C140.191 30.448 139.338 30.8 138.698 31.504C138.058 32.208 137.738 33.1733 137.738 34.4C137.738 35.6267 138.058 36.592 138.698 37.296C139.338 38 140.191 38.352 141.258 38.352ZM150.266 40V28.8H154.378C155.274 28.8 156.01 28.9547 156.586 29.264C157.173 29.5627 157.61 29.9733 157.898 30.496C158.186 31.008 158.33 31.5787 158.33 32.208C158.33 32.8907 158.149 33.5147 157.786 34.08C157.434 34.6453 156.879 35.056 156.122 35.312L158.442 40H156.09L154.01 35.584H152.314V40H150.266ZM152.314 34.08H154.25C154.933 34.08 155.434 33.9147 155.754 33.584C156.074 33.2533 156.234 32.816 156.234 32.272C156.234 31.7387 156.074 31.312 155.754 30.992C155.445 30.672 154.938 30.512 154.234 30.512H152.314V34.08ZM161.835 40V28.8H169.147V30.448H163.883V33.52H168.667V35.12H163.883V38.352H169.147V40H161.835Z" fill="white"/>
<defs>
<clipPath id="clip0_24_1474">
<rect width="23" height="25" fill="white" transform="translate(32 22.5)"/>
</clipPath>
</defs>
</svg>
