<svg width="193" height="70" viewBox="0 0 193 70" fill="none" xmlns="http://www.w3.org/2000/svg">
<rect width="193" height="70" rx="35" fill="#0328EE"/>
<g clip-path="url(#clip0_24_1468)">
<path d="M34.892 45.0589C35.9089 46.5229 37.2995 48.5247 39.0936 48.5247V48.5212H39.185C39.8698 48.4777 40.5395 48.2985 41.1554 47.9938H41.1727C41.9523 47.6126 42.8069 47.4128 43.6735 47.4091C44.5034 47.4182 45.3208 47.6135 46.0664 47.9808H46.0716C46.6946 48.297 47.38 48.4686 48.0774 48.483H48.1792C49.9841 48.456 51.1378 46.9391 52.3451 45.1093C53.1739 43.9142 53.8163 42.5984 54.25 41.2076V41.2006C53.5704 40.9123 52.9494 40.5 52.4184 39.9843C51.832 39.4268 51.3666 38.7531 51.0513 38.0055C50.7361 37.2579 50.578 36.4525 50.5868 35.6403C50.6038 34.5861 50.8836 33.5531 51.4003 32.6361C51.9169 31.7192 52.654 30.9478 53.5438 30.3927C52.9766 29.5778 52.2289 28.907 51.3599 28.4335C50.4909 27.96 49.5245 27.6968 48.537 27.6647C48.3724 27.6499 48.2249 27.6421 48.0989 27.6421C47.0096 27.711 45.9425 27.9839 44.9523 28.4466H44.9316C44.4223 28.6953 43.8757 28.8574 43.3139 28.9262C42.7215 28.8629 42.1448 28.6944 41.6107 28.4284H41.5918C40.7358 28.019 39.8099 27.7787 38.8642 27.7203H38.7866C37.6354 27.7568 36.5132 28.0933 35.5296 28.6971C34.546 29.3008 33.7346 30.1511 33.1745 31.1651C32.0454 33.4 31.7176 35.9595 32.2466 38.41C32.6635 40.7825 33.5618 43.0428 34.8854 45.0494L34.892 45.0589Z" fill="white"/>
<path d="M43.1 27.344C43.1889 27.352 43.2781 27.3555 43.3674 27.3544C44.0995 27.3172 44.8157 27.1249 45.4691 26.7902C46.1225 26.4555 46.6987 25.9858 47.1599 25.4118C48.1822 24.1828 48.6844 22.5985 48.5586 21C47.0035 21.1637 45.5668 21.912 44.535 23.0955C43.5165 24.264 43.0004 25.7922 43.1 27.344Z" fill="white"/>
</g>
<path d="M63.5696 40L67.6656 28.8H69.9696L74.0656 40H71.8896L70.9936 37.408H66.6256L65.7136 40H63.5696ZM67.1856 35.808H70.4336L68.8016 31.152L67.1856 35.808ZM77.1083 40V28.8H81.2523C82.1483 28.8 82.8896 28.9493 83.4763 29.248C84.063 29.5467 84.5003 29.9573 84.7883 30.48C85.0763 31.0027 85.2203 31.5893 85.2203 32.24C85.2203 32.8587 85.0816 33.4293 84.8043 33.952C84.527 34.464 84.095 34.88 83.5083 35.2C82.9216 35.5093 82.1696 35.664 81.2523 35.664H79.1563V40H77.1083ZM79.1563 34H81.1243C81.839 34 82.351 33.8453 82.6603 33.536C82.9803 33.216 83.1403 32.784 83.1403 32.24C83.1403 31.6853 82.9803 31.2533 82.6603 30.944C82.351 30.624 81.839 30.464 81.1243 30.464H79.1563V34ZM88.4271 40V28.8H92.5711C93.4671 28.8 94.2084 28.9493 94.7951 29.248C95.3817 29.5467 95.8191 29.9573 96.1071 30.48C96.3951 31.0027 96.5391 31.5893 96.5391 32.24C96.5391 32.8587 96.4004 33.4293 96.1231 33.952C95.8457 34.464 95.4137 34.88 94.8271 35.2C94.2404 35.5093 93.4884 35.664 92.5711 35.664H90.4751V40H88.4271ZM90.4751 34H92.4431C93.1577 34 93.6697 33.8453 93.9791 33.536C94.2991 33.216 94.4591 32.784 94.4591 32.24C94.4591 31.6853 94.2991 31.2533 93.9791 30.944C93.6697 30.624 93.1577 30.464 92.4431 30.464H90.4751V34ZM108.982 40.192C108.161 40.192 107.436 40.0533 106.806 39.776C106.177 39.488 105.681 39.0827 105.318 38.56C104.956 38.0267 104.769 37.3813 104.758 36.624H106.918C106.94 37.1467 107.126 37.5893 107.478 37.952C107.841 38.304 108.337 38.48 108.966 38.48C109.51 38.48 109.942 38.352 110.262 38.096C110.582 37.8293 110.742 37.4773 110.742 37.04C110.742 36.5813 110.598 36.224 110.31 35.968C110.033 35.712 109.66 35.504 109.19 35.344C108.721 35.184 108.22 35.0133 107.686 34.832C106.822 34.5333 106.161 34.1493 105.702 33.68C105.254 33.2107 105.03 32.5867 105.03 31.808C105.02 31.1467 105.174 30.5813 105.494 30.112C105.825 29.632 106.273 29.264 106.838 29.008C107.404 28.7413 108.054 28.608 108.79 28.608C109.537 28.608 110.193 28.7413 110.758 29.008C111.334 29.2747 111.782 29.648 112.102 30.128C112.433 30.608 112.609 31.1787 112.63 31.84H110.438C110.428 31.4453 110.273 31.0987 109.974 30.8C109.686 30.4907 109.281 30.336 108.758 30.336C108.31 30.3253 107.932 30.4373 107.622 30.672C107.324 30.896 107.174 31.2267 107.174 31.664C107.174 32.0373 107.292 32.336 107.526 32.56C107.761 32.7733 108.081 32.9547 108.486 33.104C108.892 33.2533 109.356 33.4133 109.878 33.584C110.433 33.776 110.94 34 111.398 34.256C111.857 34.512 112.225 34.8533 112.502 35.28C112.78 35.696 112.918 36.2347 112.918 36.896C112.918 37.4827 112.769 38.0267 112.47 38.528C112.172 39.0293 111.729 39.4347 111.142 39.744C110.556 40.0427 109.836 40.192 108.982 40.192ZM118.773 40V30.448H115.509V28.8H124.101V30.448H120.821V40H118.773ZM132.059 40.192C130.939 40.192 129.958 39.9467 129.115 39.456C128.283 38.9653 127.627 38.288 127.147 37.424C126.678 36.5493 126.443 35.5413 126.443 34.4C126.443 33.2587 126.678 32.256 127.147 31.392C127.627 30.5173 128.283 29.8347 129.115 29.344C129.958 28.8533 130.939 28.608 132.059 28.608C133.169 28.608 134.145 28.8533 134.987 29.344C135.83 29.8347 136.486 30.5173 136.955 31.392C137.425 32.256 137.659 33.2587 137.659 34.4C137.659 35.5413 137.425 36.5493 136.955 37.424C136.486 38.288 135.83 38.9653 134.987 39.456C134.145 39.9467 133.169 40.192 132.059 40.192ZM132.059 38.352C133.126 38.352 133.974 38 134.603 37.296C135.243 36.592 135.563 35.6267 135.563 34.4C135.563 33.1733 135.243 32.208 134.603 31.504C133.974 30.8 133.126 30.448 132.059 30.448C130.993 30.448 130.139 30.8 129.499 31.504C128.859 32.208 128.539 33.1733 128.539 34.4C128.539 35.6267 128.859 36.592 129.499 37.296C130.139 38 130.993 38.352 132.059 38.352ZM141.068 40V28.8H145.18C146.076 28.8 146.812 28.9547 147.388 29.264C147.974 29.5627 148.412 29.9733 148.7 30.496C148.988 31.008 149.132 31.5787 149.132 32.208C149.132 32.8907 148.95 33.5147 148.588 34.08C148.236 34.6453 147.681 35.056 146.924 35.312L149.244 40H146.892L144.812 35.584H143.116V40H141.068ZM143.116 34.08H145.052C145.734 34.08 146.236 33.9147 146.556 33.584C146.876 33.2533 147.036 32.816 147.036 32.272C147.036 31.7387 146.876 31.312 146.556 30.992C146.246 30.672 145.74 30.512 145.036 30.512H143.116V34.08ZM152.636 40V28.8H159.948V30.448H154.684V33.52H159.468V35.12H154.684V38.352H159.948V40H152.636Z" fill="white"/>
<defs>
<clipPath id="clip0_24_1468">
<rect width="23" height="28" fill="white" transform="translate(32 21)"/>
</clipPath>
</defs>
</svg>
