<svg width="68" height="69" viewBox="0 0 68 69" fill="none" xmlns="http://www.w3.org/2000/svg">
<rect y="0.984375" width="68" height="68" rx="20" fill="#0328EE"/>
<g clip-path="url(#clip0_104_21275)">
<path opacity="0.4" d="M56.1309 34.7281C56.1309 47.0928 46.1079 57.1158 33.7432 57.1158C21.3784 57.1158 11.3555 47.0928 11.3555 34.7281C11.3555 22.3656 21.3784 12.3403 33.7432 12.3403C46.1079 12.3403 56.1309 22.3656 56.1309 34.7281Z" fill="white"/>
<path d="M42.3843 27.3512L38.7575 38.8137C38.6232 39.2838 38.2426 39.6644 37.7724 39.801L26.3547 43.3808C25.5935 43.6293 24.8547 42.8882 25.101 42.1271L28.683 30.6422C28.8174 30.172 29.1979 29.8138 29.6681 29.6571L41.1306 26.0751C41.9142 25.8288 42.6306 26.5676 42.3843 27.3512Z" fill="white"/>
</g>
<defs>
<clipPath id="clip0_104_21275">
<rect width="46" height="46" fill="white" transform="translate(11 11.9844)"/>
</clipPath>
</defs>
</svg>
