<svg width="68" height="69" viewBox="0 0 68 69" fill="none" xmlns="http://www.w3.org/2000/svg">
<rect y="0.984375" width="68" height="68" rx="20" fill="#0328EE"/>
<g clip-path="url(#clip0_104_21284)">
<path d="M31.2601 51.8022C41.7084 51.8022 50.1784 43.279 50.1784 32.7651C50.1784 22.2512 41.7084 13.728 31.2601 13.728C20.8118 13.728 12.3418 22.2512 12.3418 32.7651C12.3418 43.279 20.8118 51.8022 31.2601 51.8022Z" fill="white"/>
<path opacity="0.4" d="M53.4265 57.6295C52.6916 57.6057 51.9928 57.3034 51.4701 56.783L46.99 51.5463C46.0295 50.6679 45.9509 49.1751 46.8139 48.1995C47.2178 47.7908 47.767 47.561 48.3399 47.561C48.9127 47.561 49.4619 47.7908 49.8659 48.1995L55.5003 52.7078C56.3119 53.5385 56.5623 54.7717 56.1397 55.8562C55.717 56.9407 54.7003 57.6739 53.5439 57.728L53.4265 57.6295Z" fill="white"/>
</g>
<defs>
<clipPath id="clip0_104_21284">
<rect width="45" height="45" fill="white" transform="translate(12 12.9844)"/>
</clipPath>
</defs>
</svg>
