<svg width="38" height="39" viewBox="0 0 38 39" fill="none" xmlns="http://www.w3.org/2000/svg">
<rect y="0.0234375" width="38" height="38" rx="19" fill="#0328EE"/>
<g clip-path="url(#clip0_104_30853)">
<path opacity="0.4" d="M29.207 23.6491C29.207 26.5868 26.8323 28.9664 23.8744 28.9769H23.8638H13.3577C10.4105 28.9769 8.00391 26.6078 8.00391 23.6701V23.6597C8.00391 23.6597 8.01027 18.9994 8.01875 16.6556C8.01981 16.2155 8.52868 15.9691 8.87535 16.2428C11.3943 18.2276 15.8989 21.8465 15.9551 21.8939C16.7078 22.493 17.6619 22.831 18.6373 22.831C19.6126 22.831 20.5668 22.493 21.3195 21.8823C21.3756 21.8455 25.7795 18.335 28.3366 16.3176C28.6844 16.0428 29.1954 16.2892 29.1964 16.7282C29.207 19.0541 29.207 23.6491 29.207 23.6491Z" fill="white"/>
<path d="M28.6494 12.839C27.7314 11.1206 25.9248 10.0234 23.936 10.0234H13.3556C11.3668 10.0234 9.56028 11.1206 8.64218 12.839C8.43651 13.2233 8.53405 13.7024 8.87648 13.974L16.7481 20.2274C17.2994 20.6696 17.9673 20.8896 18.6352 20.8896C18.6394 20.8896 18.6426 20.8896 18.6458 20.8896C18.649 20.8896 18.6532 20.8896 18.6564 20.8896C19.3243 20.8896 19.9922 20.6696 20.5435 20.2274L28.4151 13.974C28.7575 13.7024 28.8551 13.2233 28.6494 12.839Z" fill="white"/>
</g>
<defs>
<clipPath id="clip0_104_30853">
<rect width="22" height="19" fill="white" transform="translate(8.00391 10.0234)"/>
</clipPath>
</defs>
</svg>
